%TF.GenerationSoftware,KiCad,Pcbnew,9.0.0*%
%TF.CreationDate,2025-04-14T10:39:46-04:00*%
%TF.ProjectId,rightPCB,72696768-7450-4434-922e-6b696361645f,rev?*%
%TF.SameCoordinates,Original*%
%TF.FileFunction,Legend,Bot*%
%TF.FilePolarity,Positive*%
%FSLAX46Y46*%
G04 Gerber Fmt 4.6, Leading zero omitted, Abs format (unit mm)*
G04 Created by KiCad (PCBNEW 9.0.0) date 2025-04-14 10:39:46*
%MOMM*%
%LPD*%
G01*
G04 APERTURE LIST*
%ADD10C,0.100000*%
G04 APERTURE END LIST*
D10*
X214790200Y-75433332D02*
X214742580Y-75290475D01*
X214742580Y-75290475D02*
X214742580Y-75052380D01*
X214742580Y-75052380D02*
X214790200Y-74957142D01*
X214790200Y-74957142D02*
X214837819Y-74909523D01*
X214837819Y-74909523D02*
X214933057Y-74861904D01*
X214933057Y-74861904D02*
X215028295Y-74861904D01*
X215028295Y-74861904D02*
X215123533Y-74909523D01*
X215123533Y-74909523D02*
X215171152Y-74957142D01*
X215171152Y-74957142D02*
X215218771Y-75052380D01*
X215218771Y-75052380D02*
X215266390Y-75242856D01*
X215266390Y-75242856D02*
X215314009Y-75338094D01*
X215314009Y-75338094D02*
X215361628Y-75385713D01*
X215361628Y-75385713D02*
X215456866Y-75433332D01*
X215456866Y-75433332D02*
X215552104Y-75433332D01*
X215552104Y-75433332D02*
X215647342Y-75385713D01*
X215647342Y-75385713D02*
X215694961Y-75338094D01*
X215694961Y-75338094D02*
X215742580Y-75242856D01*
X215742580Y-75242856D02*
X215742580Y-75004761D01*
X215742580Y-75004761D02*
X215694961Y-74861904D01*
X215742580Y-74528570D02*
X214742580Y-74290475D01*
X214742580Y-74290475D02*
X215456866Y-74099999D01*
X215456866Y-74099999D02*
X214742580Y-73909523D01*
X214742580Y-73909523D02*
X215742580Y-73671428D01*
X215742580Y-72814285D02*
X215742580Y-73290475D01*
X215742580Y-73290475D02*
X215266390Y-73338094D01*
X215266390Y-73338094D02*
X215314009Y-73290475D01*
X215314009Y-73290475D02*
X215361628Y-73195237D01*
X215361628Y-73195237D02*
X215361628Y-72957142D01*
X215361628Y-72957142D02*
X215314009Y-72861904D01*
X215314009Y-72861904D02*
X215266390Y-72814285D01*
X215266390Y-72814285D02*
X215171152Y-72766666D01*
X215171152Y-72766666D02*
X214933057Y-72766666D01*
X214933057Y-72766666D02*
X214837819Y-72814285D01*
X214837819Y-72814285D02*
X214790200Y-72861904D01*
X214790200Y-72861904D02*
X214742580Y-72957142D01*
X214742580Y-72957142D02*
X214742580Y-73195237D01*
X214742580Y-73195237D02*
X214790200Y-73290475D01*
X214790200Y-73290475D02*
X214837819Y-73338094D01*
%TO.C,SW5*%
X229500000Y-73300000D02*
X216300000Y-73300000D01*
X216300000Y-60900000D01*
X229500000Y-60900000D01*
X229500000Y-73300000D01*
%TD*%
M02*
