M48
; DRILL file {KiCad 9.0.0} date 2025-04-14T10:38:39-0400
; FORMAT={-:-/ absolute / metric / decimal}
; #@! TF.CreationDate,2025-04-14T10:38:39-04:00
; #@! TF.GenerationSoftware,Kicad,Pcbnew,9.0.0
; #@! TF.FileFunction,Plated,1,2,PTH
FMAT,2
METRIC
; #@! TA.AperFunction,Plated,PTH,ViaDrill
T1C0.300
; #@! TA.AperFunction,Plated,PTH,ComponentDrill
T2C0.700
; #@! TA.AperFunction,Plated,PTH,ComponentDrill
T3C0.800
; #@! TA.AperFunction,Plated,PTH,ComponentDrill
T4C0.900
; #@! TA.AperFunction,Plated,PTH,ComponentDrill
T5C1.000
; #@! TA.AperFunction,Plated,PTH,ComponentDrill
T6C1.300
; #@! TA.AperFunction,Plated,PTH,ComponentDrill
T7C2.100
%
G90
G05
T1
X126.5Y-89.0
X130.25Y-72.25
X145.0Y-76.253
X150.0Y-68.0
X150.0Y-100.0
X162.845Y-89.002
X170.741Y-92.671
T2
X166.5Y-77.38
X166.5Y-85.0
T3
X141.5Y-65.6
X143.9Y-92.4
X144.0Y-65.6
X146.4Y-92.4
X154.0Y-68.0
X156.0Y-73.0
X156.0Y-75.5
X156.5Y-68.0
T4
X130.15Y-105.05
X132.15Y-105.05
X166.96Y-71.0
X169.5Y-71.0
T5
X139.3Y-102.5
X139.3Y-106.1
X142.525Y-50.5
X145.065Y-50.5
X147.605Y-50.5
X150.145Y-50.5
X152.685Y-50.5
X152.9Y-96.6
X152.9Y-99.14
X152.9Y-101.68
X152.9Y-104.22
X152.9Y-106.76
X152.9Y-109.3
X152.9Y-111.84
X155.225Y-50.5
X157.765Y-50.5
X160.305Y-50.5
X162.845Y-50.5
X165.385Y-50.5
X167.925Y-50.5
X170.465Y-50.5
T6
X136.0Y-55.6
X136.0Y-58.1
X136.0Y-60.6
T7
G00X128.6Y-50.3
M15
G01X128.4Y-50.3
M16
G05
G00X128.6Y-65.9
M15
G01X128.4Y-65.9
M16
G05
M30
