%TF.GenerationSoftware,KiCad,Pcbnew,9.0.0*%
%TF.CreationDate,2025-04-14T10:38:46-04:00*%
%TF.ProjectId,leftPCB,6c656674-5043-4422-9e6b-696361645f70,rev?*%
%TF.SameCoordinates,Original*%
%TF.FileFunction,Legend,Bot*%
%TF.FilePolarity,Positive*%
%FSLAX46Y46*%
G04 Gerber Fmt 4.6, Leading zero omitted, Abs format (unit mm)*
G04 Created by KiCad (PCBNEW 9.0.0) date 2025-04-14 10:38:46*
%MOMM*%
%LPD*%
G01*
G04 APERTURE LIST*
%ADD10C,0.152000*%
%ADD11C,0.100000*%
G04 APERTURE END LIST*
D10*
X161930485Y-81327667D02*
X162235285Y-81327667D01*
X162235285Y-81806638D02*
X162235285Y-80892238D01*
X162235285Y-80892238D02*
X161799857Y-80892238D01*
X161016086Y-81806638D02*
X161451514Y-81806638D01*
X161451514Y-81806638D02*
X161451514Y-80892238D01*
D11*
X125309800Y-38566667D02*
X125357419Y-38709524D01*
X125357419Y-38709524D02*
X125357419Y-38947619D01*
X125357419Y-38947619D02*
X125309800Y-39042857D01*
X125309800Y-39042857D02*
X125262180Y-39090476D01*
X125262180Y-39090476D02*
X125166942Y-39138095D01*
X125166942Y-39138095D02*
X125071704Y-39138095D01*
X125071704Y-39138095D02*
X124976466Y-39090476D01*
X124976466Y-39090476D02*
X124928847Y-39042857D01*
X124928847Y-39042857D02*
X124881228Y-38947619D01*
X124881228Y-38947619D02*
X124833609Y-38757143D01*
X124833609Y-38757143D02*
X124785990Y-38661905D01*
X124785990Y-38661905D02*
X124738371Y-38614286D01*
X124738371Y-38614286D02*
X124643133Y-38566667D01*
X124643133Y-38566667D02*
X124547895Y-38566667D01*
X124547895Y-38566667D02*
X124452657Y-38614286D01*
X124452657Y-38614286D02*
X124405038Y-38661905D01*
X124405038Y-38661905D02*
X124357419Y-38757143D01*
X124357419Y-38757143D02*
X124357419Y-38995238D01*
X124357419Y-38995238D02*
X124405038Y-39138095D01*
X124357419Y-39471429D02*
X125357419Y-39709524D01*
X125357419Y-39709524D02*
X124643133Y-39900000D01*
X124643133Y-39900000D02*
X125357419Y-40090476D01*
X125357419Y-40090476D02*
X124357419Y-40328572D01*
X124357419Y-41185714D02*
X124357419Y-40709524D01*
X124357419Y-40709524D02*
X124833609Y-40661905D01*
X124833609Y-40661905D02*
X124785990Y-40709524D01*
X124785990Y-40709524D02*
X124738371Y-40804762D01*
X124738371Y-40804762D02*
X124738371Y-41042857D01*
X124738371Y-41042857D02*
X124785990Y-41138095D01*
X124785990Y-41138095D02*
X124833609Y-41185714D01*
X124833609Y-41185714D02*
X124928847Y-41233333D01*
X124928847Y-41233333D02*
X125166942Y-41233333D01*
X125166942Y-41233333D02*
X125262180Y-41185714D01*
X125262180Y-41185714D02*
X125309800Y-41138095D01*
X125309800Y-41138095D02*
X125357419Y-41042857D01*
X125357419Y-41042857D02*
X125357419Y-40804762D01*
X125357419Y-40804762D02*
X125309800Y-40709524D01*
X125309800Y-40709524D02*
X125262180Y-40661905D01*
%TO.C,SW5*%
X121900000Y-51900000D02*
X135100000Y-51900000D01*
X135100000Y-64300000D01*
X121900000Y-64300000D01*
X121900000Y-51900000D01*
%TD*%
M02*
