%TF.GenerationSoftware,KiCad,Pcbnew,9.0.0*%
%TF.CreationDate,2025-04-14T10:38:46-04:00*%
%TF.ProjectId,leftPCB,6c656674-5043-4422-9e6b-696361645f70,rev?*%
%TF.SameCoordinates,Original*%
%TF.FileFunction,Soldermask,Bot*%
%TF.FilePolarity,Negative*%
%FSLAX46Y46*%
G04 Gerber Fmt 4.6, Leading zero omitted, Abs format (unit mm)*
G04 Created by KiCad (PCBNEW 9.0.0) date 2025-04-14 10:38:46*
%MOMM*%
%LPD*%
G01*
G04 APERTURE LIST*
G04 Aperture macros list*
%AMRoundRect*
0 Rectangle with rounded corners*
0 $1 Rounding radius*
0 $2 $3 $4 $5 $6 $7 $8 $9 X,Y pos of 4 corners*
0 Add a 4 corners polygon primitive as box body*
4,1,4,$2,$3,$4,$5,$6,$7,$8,$9,$2,$3,0*
0 Add four circle primitives for the rounded corners*
1,1,$1+$1,$2,$3*
1,1,$1+$1,$4,$5*
1,1,$1+$1,$6,$7*
1,1,$1+$1,$8,$9*
0 Add four rect primitives between the rounded corners*
20,1,$1+$1,$2,$3,$4,$5,0*
20,1,$1+$1,$4,$5,$6,$7,0*
20,1,$1+$1,$6,$7,$8,$9,0*
20,1,$1+$1,$8,$9,$2,$3,0*%
G04 Aperture macros list end*
%ADD10C,10.000000*%
%ADD11R,1.700000X1.700000*%
%ADD12R,1.350000X1.350000*%
%ADD13C,1.350000*%
%ADD14C,1.600000*%
%ADD15O,1.700000X1.700000*%
%ADD16O,1.400000X1.400000*%
%ADD17C,1.400000*%
%ADD18C,2.000000*%
%ADD19R,1.800000X1.800000*%
%ADD20C,1.800000*%
%ADD21C,3.500000*%
%ADD22RoundRect,0.465000X-1.185000X1.085000X-1.185000X-1.085000X1.185000X-1.085000X1.185000X1.085000X0*%
G04 APERTURE END LIST*
D10*
X140000000Y-81895697D02*
G75*
G02*
X130000000Y-81895697I-5000000J0D01*
G01*
X130000000Y-81895697D02*
G75*
G02*
X140000000Y-81895697I5000000J0D01*
G01*
D11*
%TO.C,J4*%
X139300000Y-106100000D03*
%TD*%
D12*
%TO.C,J5*%
X130150000Y-105050000D03*
D13*
X132150000Y-105050000D03*
%TD*%
D14*
%TO.C,C4*%
X156000000Y-75500000D03*
X156000000Y-73000000D03*
%TD*%
D15*
%TO.C,J2*%
X152900000Y-101680000D03*
X152900000Y-104220000D03*
X152900000Y-99140000D03*
D11*
X152900000Y-96600000D03*
D15*
X152900000Y-106760000D03*
X152900000Y-109300000D03*
X152900000Y-111840000D03*
%TD*%
D16*
%TO.C,R1*%
X166500000Y-85000000D03*
D17*
X166500000Y-77380000D03*
%TD*%
D18*
%TO.C,H5*%
X124999900Y-48999900D03*
%TD*%
D14*
%TO.C,C1*%
X144000000Y-65600000D03*
X141500000Y-65600000D03*
%TD*%
D11*
%TO.C,J1*%
X142525000Y-50500000D03*
D15*
X145065000Y-50500000D03*
X147605000Y-50500000D03*
X150145000Y-50500000D03*
X152685000Y-50500000D03*
X155225000Y-50500000D03*
X157765000Y-50500000D03*
X160305000Y-50500000D03*
X162845000Y-50500000D03*
X165385000Y-50500000D03*
X167925000Y-50500000D03*
X170465000Y-50500000D03*
%TD*%
D14*
%TO.C,C3*%
X156500000Y-68000000D03*
X154000000Y-68000000D03*
%TD*%
D19*
%TO.C,D1*%
X166960000Y-71000000D03*
D20*
X169500000Y-71000000D03*
%TD*%
D18*
%TO.C,H4*%
X146000100Y-71500000D03*
%TD*%
D11*
%TO.C,J3*%
X139300000Y-102500000D03*
%TD*%
D18*
%TO.C,H3*%
X124500000Y-93000100D03*
%TD*%
D21*
%TO.C,H1*%
X175243400Y-111998300D03*
%TD*%
D18*
%TO.C,H2*%
X129000100Y-133000000D03*
%TD*%
D14*
%TO.C,C2*%
X143900000Y-92400000D03*
X146400000Y-92400000D03*
%TD*%
D18*
%TO.C,H6*%
X176000000Y-49000000D03*
%TD*%
D20*
%TO.C,SW5*%
X136000000Y-58100000D03*
D22*
X128500000Y-50300000D03*
X128500000Y-65900000D03*
D20*
X136000000Y-55600000D03*
X136000000Y-60600000D03*
%TD*%
M02*
