%TF.GenerationSoftware,KiCad,Pcbnew,9.0.0*%
%TF.CreationDate,2025-04-14T10:18:26-04:00*%
%TF.ProjectId,centerPCB,63656e74-6572-4504-9342-2e6b69636164,rev?*%
%TF.SameCoordinates,Original*%
%TF.FileFunction,Legend,Bot*%
%TF.FilePolarity,Positive*%
%FSLAX46Y46*%
G04 Gerber Fmt 4.6, Leading zero omitted, Abs format (unit mm)*
G04 Created by KiCad (PCBNEW 9.0.0) date 2025-04-14 10:18:26*
%MOMM*%
%LPD*%
G01*
G04 APERTURE LIST*
%ADD10C,0.150000*%
%ADD11C,0.120000*%
G04 APERTURE END LIST*
D10*
X147838919Y-68022095D02*
X148648442Y-68022095D01*
X148648442Y-68022095D02*
X148743680Y-68069714D01*
X148743680Y-68069714D02*
X148791300Y-68117333D01*
X148791300Y-68117333D02*
X148838919Y-68212571D01*
X148838919Y-68212571D02*
X148838919Y-68403047D01*
X148838919Y-68403047D02*
X148791300Y-68498285D01*
X148791300Y-68498285D02*
X148743680Y-68545904D01*
X148743680Y-68545904D02*
X148648442Y-68593523D01*
X148648442Y-68593523D02*
X147838919Y-68593523D01*
X148838919Y-69593523D02*
X148838919Y-69022095D01*
X148838919Y-69307809D02*
X147838919Y-69307809D01*
X147838919Y-69307809D02*
X147981776Y-69212571D01*
X147981776Y-69212571D02*
X148077014Y-69117333D01*
X148077014Y-69117333D02*
X148124633Y-69022095D01*
D11*
%TO.C,U1*%
X96464100Y-66184000D02*
X96464100Y-71384000D01*
X96464100Y-66184000D02*
X147384100Y-66184000D01*
X96464100Y-71384000D02*
X144784100Y-71384000D01*
X144784100Y-68784000D02*
X144784100Y-71384000D01*
X147384100Y-66184000D02*
X147384100Y-68784000D01*
X147384100Y-68784000D02*
X144784100Y-68784000D01*
X147384100Y-70054000D02*
X147384100Y-71384000D01*
X147384100Y-71384000D02*
X146054100Y-71384000D01*
%TD*%
M02*
