M48
; DRILL file {KiCad 9.0.0} date 2025-04-14T10:18:10-0400
; FORMAT={-:-/ absolute / metric / decimal}
; #@! TF.CreationDate,2025-04-14T10:18:10-04:00
; #@! TF.GenerationSoftware,Kicad,Pcbnew,9.0.0
; #@! TF.FileFunction,Plated,1,2,PTH
FMAT,2
METRIC
; #@! TA.AperFunction,Plated,PTH,ViaDrill
T1C0.300
; #@! TA.AperFunction,Plated,PTH,ComponentDrill
T2C1.000
%
G90
G05
T1
X109.405Y-65.719
X119.156Y-57.378
X133.354Y-65.719
X142.637Y-59.041
X146.176Y-99.969
X146.887Y-102.49
X152.451Y-84.71
X153.862Y-103.76
X177.877Y-73.858
X202.317Y-85.98
X210.271Y-62.542
T2
X78.525Y-57.2
X81.065Y-57.2
X83.605Y-57.2
X86.145Y-57.2
X88.685Y-57.2
X91.225Y-57.2
X93.765Y-57.2
X96.305Y-57.2
X97.794Y-67.514
X97.794Y-70.054
X98.845Y-57.2
X100.334Y-67.514
X100.334Y-70.054
X101.385Y-57.2
X102.874Y-67.514
X102.874Y-70.054
X103.925Y-57.2
X105.414Y-67.514
X105.414Y-70.054
X106.465Y-57.2
X107.954Y-67.514
X107.954Y-70.054
X110.494Y-67.514
X110.494Y-70.054
X113.034Y-67.514
X113.034Y-70.054
X115.574Y-67.514
X115.574Y-70.054
X118.0Y-60.2
X118.0Y-62.74
X118.114Y-67.514
X118.114Y-70.054
X120.54Y-60.2
X120.54Y-62.74
X120.654Y-67.514
X120.654Y-70.054
X123.08Y-60.2
X123.08Y-62.74
X123.194Y-67.514
X123.194Y-70.054
X125.62Y-60.2
X125.62Y-62.74
X125.734Y-67.514
X125.734Y-70.054
X128.16Y-60.2
X128.16Y-62.74
X128.274Y-67.514
X128.274Y-70.054
X130.7Y-60.2
X130.7Y-62.74
X130.814Y-67.514
X130.814Y-70.054
X133.24Y-60.2
X133.24Y-62.74
X133.354Y-67.514
X133.354Y-70.054
X135.78Y-60.2
X135.78Y-62.74
X135.894Y-67.514
X135.894Y-70.054
X138.32Y-60.2
X138.32Y-62.74
X138.434Y-67.514
X138.434Y-70.054
X140.86Y-60.2
X140.86Y-62.74
X140.974Y-67.514
X140.974Y-70.054
X143.4Y-60.2
X143.4Y-62.74
X143.514Y-67.514
X143.514Y-70.054
X145.94Y-60.2
X145.94Y-62.74
X146.054Y-67.514
X146.054Y-70.054
X148.48Y-60.2
X148.48Y-62.74
X180.06Y-58.04
X180.06Y-60.58
X180.06Y-63.12
X180.06Y-65.66
X180.06Y-68.2
X180.06Y-70.74
X180.06Y-73.28
X180.06Y-75.82
X180.06Y-78.36
X180.06Y-80.9
X180.06Y-83.44
X180.06Y-85.98
X180.06Y-88.52
X180.06Y-91.06
X180.06Y-93.6
X180.06Y-96.14
X180.06Y-98.68
X180.06Y-101.22
X180.06Y-103.76
X180.06Y-106.3
X182.6Y-58.04
X182.6Y-60.58
X182.6Y-63.12
X182.6Y-65.66
X182.6Y-68.2
X182.6Y-70.74
X182.6Y-73.28
X182.6Y-75.82
X182.6Y-78.36
X182.6Y-80.9
X182.6Y-83.44
X182.6Y-85.98
X182.6Y-88.52
X182.6Y-91.06
X182.6Y-93.6
X182.6Y-96.14
X182.6Y-98.68
X182.6Y-101.22
X182.6Y-103.76
X182.6Y-106.3
X208.0Y-61.16
X208.0Y-63.7
X208.0Y-66.24
X208.0Y-68.78
X208.0Y-71.32
X208.0Y-73.86
X208.0Y-76.4
M30
