%TF.GenerationSoftware,KiCad,Pcbnew,9.0.0*%
%TF.CreationDate,2025-04-14T10:18:26-04:00*%
%TF.ProjectId,centerPCB,63656e74-6572-4504-9342-2e6b69636164,rev?*%
%TF.SameCoordinates,Original*%
%TF.FileFunction,Copper,L1,Top*%
%TF.FilePolarity,Positive*%
%FSLAX46Y46*%
G04 Gerber Fmt 4.6, Leading zero omitted, Abs format (unit mm)*
G04 Created by KiCad (PCBNEW 9.0.0) date 2025-04-14 10:18:26*
%MOMM*%
%LPD*%
G01*
G04 APERTURE LIST*
%TA.AperFunction,ComponentPad*%
%ADD10R,1.700000X1.700000*%
%TD*%
%TA.AperFunction,ComponentPad*%
%ADD11O,1.700000X1.700000*%
%TD*%
%TA.AperFunction,ViaPad*%
%ADD12C,0.600000*%
%TD*%
%TA.AperFunction,Conductor*%
%ADD13C,0.200000*%
%TD*%
G04 APERTURE END LIST*
D10*
%TO.P,U2,1,3V3*%
%TO.N,GND*%
X118000000Y-62740000D03*
D11*
%TO.P,U2,2,5V*%
%TO.N,/5v*%
X118000000Y-60200000D03*
%TO.P,U2,3,NC*%
%TO.N,GND*%
X120540000Y-62740000D03*
%TO.P,U2,4,5V*%
%TO.N,/5v*%
X120540000Y-60200000D03*
%TO.P,U2,5,NC*%
%TO.N,GND*%
X123080000Y-62740000D03*
%TO.P,U2,6,GND*%
X123080000Y-60200000D03*
%TO.P,U2,7,NC*%
X125620000Y-62740000D03*
%TO.P,U2,8,NC*%
X125620000Y-60200000D03*
%TO.P,U2,9,GND*%
X128160000Y-62740000D03*
%TO.P,U2,10,NC*%
X128160000Y-60200000D03*
%TO.P,U2,11,NC*%
X130700000Y-62740000D03*
%TO.P,U2,12,NC*%
X130700000Y-60200000D03*
%TO.P,U2,13,NC*%
X133240000Y-62740000D03*
%TO.P,U2,14,GND*%
X133240000Y-60200000D03*
%TO.P,U2,15,NC*%
X135780000Y-62740000D03*
%TO.P,U2,16,NC*%
X135780000Y-60200000D03*
%TO.P,U2,17,3V3*%
X138320000Y-62740000D03*
%TO.P,U2,18,NC*%
X138320000Y-60200000D03*
%TO.P,U2,19,TP_SI*%
X140860000Y-62740000D03*
%TO.P,U2,20,GND*%
X140860000Y-60200000D03*
%TO.P,U2,21,TP_SO*%
X143400000Y-62740000D03*
%TO.P,U2,22,IP_IRQ*%
X143400000Y-60200000D03*
%TO.P,U2,23,TP_SCK*%
X145940000Y-62740000D03*
%TO.P,U2,24,NC*%
X145940000Y-60200000D03*
%TO.P,U2,25,GND*%
X148480000Y-62740000D03*
%TO.P,U2,26,TP_CS*%
X148480000Y-60200000D03*
%TD*%
D10*
%TO.P,U3,1,3V3*%
%TO.N,/3v3*%
X182600000Y-106300000D03*
D11*
%TO.P,U3,2,5V*%
%TO.N,/5v*%
X180060000Y-106300000D03*
%TO.P,U3,3,I2C_SDA_to_MCU*%
%TO.N,/MCU SDA*%
X182600000Y-103760000D03*
%TO.P,U3,4,5V*%
%TO.N,/5v*%
X180060000Y-103760000D03*
%TO.P,U3,5,I2C_SCL_to_MCU*%
%TO.N,/MCU SCL*%
X182600000Y-101220000D03*
%TO.P,U3,6,GND*%
%TO.N,GND*%
X180060000Y-101220000D03*
%TO.P,U3,7,NC*%
X182600000Y-98680000D03*
%TO.P,U3,8,NC*%
X180060000Y-98680000D03*
%TO.P,U3,9,GND*%
X182600000Y-96140000D03*
%TO.P,U3,10,NC*%
X180060000Y-96140000D03*
%TO.P,U3,11,NC*%
X182600000Y-93600000D03*
%TO.P,U3,12,NC*%
X180060000Y-93600000D03*
%TO.P,U3,13,NC*%
X182600000Y-91060000D03*
%TO.P,U3,14,GND*%
X180060000Y-91060000D03*
%TO.P,U3,15,NC*%
X182600000Y-88520000D03*
%TO.P,U3,16,NC*%
X180060000Y-88520000D03*
%TO.P,U3,17,3V3*%
%TO.N,/3v3*%
X182600000Y-85980000D03*
%TO.P,U3,18,NC*%
%TO.N,GND*%
X180060000Y-85980000D03*
%TO.P,U3,19,NC*%
X182600000Y-83440000D03*
%TO.P,U3,20,GND*%
X180060000Y-83440000D03*
%TO.P,U3,21,NC*%
X182600000Y-80900000D03*
%TO.P,U3,22,NC*%
X180060000Y-80900000D03*
%TO.P,U3,23,NC*%
X182600000Y-78360000D03*
%TO.P,U3,24,NC*%
X180060000Y-78360000D03*
%TO.P,U3,25,GND*%
X182600000Y-75820000D03*
%TO.P,U3,26,NC*%
X180060000Y-75820000D03*
%TO.P,U3,27,I2C_SDA_to_EEPROM*%
%TO.N,/EEPROM SDA*%
X182600000Y-73280000D03*
%TO.P,U3,28,I2C_SDL_to_EEPROM*%
%TO.N,/EEPROM SDL*%
X180060000Y-73280000D03*
%TO.P,U3,29,NC*%
%TO.N,GND*%
X182600000Y-70740000D03*
%TO.P,U3,30,GND*%
X180060000Y-70740000D03*
%TO.P,U3,31,NC*%
X182600000Y-68200000D03*
%TO.P,U3,32,NC*%
X180060000Y-68200000D03*
%TO.P,U3,33,NC*%
X182600000Y-65660000D03*
%TO.P,U3,34,GND*%
X180060000Y-65660000D03*
%TO.P,U3,35,NC*%
X182600000Y-63120000D03*
%TO.P,U3,36,NC*%
X180060000Y-63120000D03*
%TO.P,U3,37,NC*%
X182600000Y-60580000D03*
%TO.P,U3,38,NC*%
X180060000Y-60580000D03*
%TO.P,U3,39,GND*%
X182600000Y-58040000D03*
%TO.P,U3,40,NC*%
X180060000Y-58040000D03*
%TD*%
D10*
%TO.P,J2,1,Pin_1*%
%TO.N,GND*%
X78525000Y-57200000D03*
D11*
%TO.P,J2,2,Pin_2*%
%TO.N,/Volume_B*%
X81065000Y-57200000D03*
%TO.P,J2,3,Pin_3*%
%TO.N,/LR_Clk*%
X83605000Y-57200000D03*
%TO.P,J2,4,Pin_4*%
%TO.N,/Volume_A*%
X86145000Y-57200000D03*
%TO.P,J2,5,Pin_5*%
%TO.N,/D_In*%
X88685000Y-57200000D03*
%TO.P,J2,6,Pin_6*%
%TO.N,/Up*%
X91225000Y-57200000D03*
%TO.P,J2,7,Pin_7*%
%TO.N,/Left*%
X93765000Y-57200000D03*
%TO.P,J2,8,Pin_8*%
%TO.N,/Right*%
X96305000Y-57200000D03*
%TO.P,J2,9,Pin_9*%
%TO.N,/Down*%
X98845000Y-57200000D03*
%TO.P,J2,10,Pin_10*%
%TO.N,/Power_LED*%
X101385000Y-57200000D03*
%TO.P,J2,11,Pin_11*%
%TO.N,/Clk*%
X103925000Y-57200000D03*
%TO.P,J2,12,Pin_12*%
%TO.N,/5v*%
X106465000Y-57200000D03*
%TD*%
D10*
%TO.P,J1,1,Pin_1*%
%TO.N,GND*%
X208000000Y-61160000D03*
D11*
%TO.P,J1,2,Pin_2*%
%TO.N,/3v3*%
X208000000Y-63700000D03*
%TO.P,J1,3,Pin_3*%
%TO.N,/Start*%
X208000000Y-66240000D03*
%TO.P,J1,4,Pin_4*%
%TO.N,/2*%
X208000000Y-68780000D03*
%TO.P,J1,5,Pin_5*%
%TO.N,/1*%
X208000000Y-71320000D03*
%TO.P,J1,6,Pin_6*%
%TO.N,/Brightness_B*%
X208000000Y-73860000D03*
%TO.P,J1,7,Pin_7*%
%TO.N,/Brightness_A*%
X208000000Y-76400000D03*
%TD*%
D10*
%TO.P,U1,1,3V3*%
%TO.N,/3v3*%
X146054100Y-70054000D03*
D11*
%TO.P,U1,2,5V*%
%TO.N,/5v*%
X146054100Y-67514000D03*
%TO.P,U1,3,GPIO2*%
%TO.N,/MCU SDA*%
X143514100Y-70054000D03*
%TO.P,U1,4,5V*%
%TO.N,/5v*%
X143514100Y-67514000D03*
%TO.P,U1,5,GPIO3*%
%TO.N,/MCU SCL*%
X140974100Y-70054000D03*
%TO.P,U1,6,GND*%
%TO.N,GND*%
X140974100Y-67514000D03*
%TO.P,U1,7,GPIO4*%
X138434100Y-70054000D03*
%TO.P,U1,8,GPIO14*%
%TO.N,/Brightness_B*%
X138434100Y-67514000D03*
%TO.P,U1,9,GND*%
%TO.N,GND*%
X135894100Y-70054000D03*
%TO.P,U1,10,GPIO15*%
%TO.N,/Volume_A*%
X135894100Y-67514000D03*
%TO.P,U1,11,GPIO17*%
%TO.N,GND*%
X133354100Y-70054000D03*
%TO.P,U1,12,GPIO18*%
%TO.N,/Clk*%
X133354100Y-67514000D03*
%TO.P,U1,13,GPIO27*%
%TO.N,GND*%
X130814100Y-70054000D03*
%TO.P,U1,14,GND*%
X130814100Y-67514000D03*
%TO.P,U1,15,GPIO22*%
X128274100Y-70054000D03*
%TO.P,U1,16,GPIO23*%
X128274100Y-67514000D03*
%TO.P,U1,17,3V3*%
%TO.N,/3v3*%
X125734100Y-70054000D03*
%TO.P,U1,18,GPIO24*%
%TO.N,GND*%
X125734100Y-67514000D03*
%TO.P,U1,19,GPIO10*%
X123194100Y-70054000D03*
%TO.P,U1,20,GND*%
X123194100Y-67514000D03*
%TO.P,U1,21,GPIO9*%
%TO.N,/Start*%
X120654100Y-70054000D03*
%TO.P,U1,22,GPIO25*%
%TO.N,GND*%
X120654100Y-67514000D03*
%TO.P,U1,23,GPIO11*%
%TO.N,/2*%
X118114100Y-70054000D03*
%TO.P,U1,24,GPIO8*%
%TO.N,/Power_LED*%
X118114100Y-67514000D03*
%TO.P,U1,25,GND*%
%TO.N,GND*%
X115574100Y-70054000D03*
%TO.P,U1,26,GPIO7*%
%TO.N,/Down*%
X115574100Y-67514000D03*
%TO.P,U1,27,ID_SD*%
%TO.N,/EEPROM SDA*%
X113034100Y-70054000D03*
%TO.P,U1,28,ID_SC*%
%TO.N,/EEPROM SDL*%
X113034100Y-67514000D03*
%TO.P,U1,29,GPIO5*%
%TO.N,/1*%
X110494100Y-70054000D03*
%TO.P,U1,30,GND*%
%TO.N,GND*%
X110494100Y-67514000D03*
%TO.P,U1,31,GPIO6*%
X107954100Y-70054000D03*
%TO.P,U1,32,GPIO12*%
%TO.N,/Right*%
X107954100Y-67514000D03*
%TO.P,U1,33,GPIO13*%
%TO.N,/Brightness_A*%
X105414100Y-70054000D03*
%TO.P,U1,34,GND*%
%TO.N,GND*%
X105414100Y-67514000D03*
%TO.P,U1,35,GPIO19*%
%TO.N,/LR_Clk*%
X102874100Y-70054000D03*
%TO.P,U1,36,GPIO16*%
%TO.N,/Left*%
X102874100Y-67514000D03*
%TO.P,U1,37,GPIO26*%
%TO.N,/Volume_B*%
X100334100Y-70054000D03*
%TO.P,U1,38,GPIO20*%
%TO.N,/Up*%
X100334100Y-67514000D03*
%TO.P,U1,39,GND*%
%TO.N,GND*%
X97794100Y-70054000D03*
%TO.P,U1,40,GPIO21*%
%TO.N,/D_In*%
X97794100Y-67514000D03*
%TD*%
D12*
%TO.N,/3v3*%
X202316900Y-85980000D03*
X152451000Y-84710000D03*
%TO.N,/Power_LED*%
X119156400Y-57377900D03*
%TO.N,/5v*%
X142637400Y-59040800D03*
X153862200Y-103760000D03*
%TO.N,/EEPROM SDA*%
X177877000Y-73857500D03*
%TO.N,/MCU SDA*%
X146887100Y-102490000D03*
%TO.N,/MCU SCL*%
X146175900Y-99968700D03*
%TO.N,/Clk*%
X109405300Y-65718700D03*
X133354100Y-65718700D03*
%TO.N,/Brightness_B*%
X210270800Y-62541700D03*
%TD*%
D13*
%TO.N,/1*%
X111645800Y-70054000D02*
X111645800Y-70341900D01*
X115763100Y-74459200D02*
X203709100Y-74459200D01*
X110494100Y-70054000D02*
X111645800Y-70054000D01*
X203709100Y-74459200D02*
X206848300Y-71320000D01*
X208000000Y-71320000D02*
X206848300Y-71320000D01*
X111645800Y-70341900D02*
X115763100Y-74459200D01*
%TO.N,/2*%
X206848300Y-68780000D02*
X203719600Y-71908700D01*
X203719600Y-71908700D02*
X120852000Y-71908700D01*
X120852000Y-71908700D02*
X119265800Y-70322500D01*
X208000000Y-68780000D02*
X206848300Y-68780000D01*
X118114100Y-70054000D02*
X119265800Y-70054000D01*
X119265800Y-70322500D02*
X119265800Y-70054000D01*
%TO.N,GND*%
X104262400Y-67782500D02*
X104262400Y-67514000D01*
X180060000Y-75820000D02*
X182600000Y-75820000D01*
X180060000Y-98680000D02*
X182600000Y-98680000D01*
X148480000Y-62740000D02*
X149631700Y-62740000D01*
X180060000Y-83440000D02*
X182600000Y-83440000D01*
X143400000Y-60200000D02*
X140860000Y-60200000D01*
X130814100Y-70054000D02*
X133354100Y-70054000D01*
X98945800Y-70054000D02*
X98945800Y-69766000D01*
X120540000Y-62740000D02*
X118000000Y-62740000D01*
X150011700Y-63120000D02*
X149631700Y-62740000D01*
X120654100Y-67514000D02*
X123194100Y-67514000D01*
X128160000Y-60200000D02*
X125620000Y-60200000D01*
X79676700Y-57487900D02*
X84928800Y-62740000D01*
X180060000Y-63120000D02*
X150011700Y-63120000D01*
X103142600Y-68902300D02*
X104262400Y-67782500D01*
X182600000Y-63120000D02*
X183751700Y-63120000D01*
X148480000Y-60200000D02*
X145940000Y-60200000D01*
X180060000Y-91060000D02*
X182600000Y-91060000D01*
X180060000Y-80900000D02*
X182600000Y-80900000D01*
X98945800Y-69766000D02*
X99809500Y-68902300D01*
X125734100Y-67514000D02*
X128274100Y-67514000D01*
X180060000Y-96140000D02*
X182600000Y-96140000D01*
X135780000Y-62740000D02*
X133240000Y-62740000D01*
X84928800Y-62740000D02*
X118000000Y-62740000D01*
X138320000Y-60200000D02*
X135780000Y-60200000D01*
X128274100Y-67514000D02*
X130814100Y-67514000D01*
X185711700Y-61160000D02*
X183751700Y-63120000D01*
X133240000Y-60200000D02*
X130700000Y-60200000D01*
X78525000Y-57200000D02*
X79676700Y-57200000D01*
X97794100Y-70054000D02*
X98945800Y-70054000D01*
X123080000Y-62740000D02*
X120540000Y-62740000D01*
X180060000Y-58040000D02*
X182600000Y-58040000D01*
X125620000Y-60200000D02*
X123080000Y-60200000D01*
X135894100Y-70054000D02*
X138434100Y-70054000D01*
X105414100Y-67514000D02*
X104262400Y-67514000D01*
X180060000Y-78360000D02*
X182600000Y-78360000D01*
X130700000Y-60200000D02*
X128160000Y-60200000D01*
X143400000Y-62740000D02*
X140860000Y-62740000D01*
X180060000Y-88520000D02*
X182600000Y-88520000D01*
X133240000Y-60200000D02*
X135780000Y-60200000D01*
X138320000Y-62740000D02*
X140860000Y-62740000D01*
X180060000Y-70740000D02*
X182600000Y-70740000D01*
X208000000Y-61160000D02*
X185711700Y-61160000D01*
X180060000Y-68200000D02*
X182600000Y-68200000D01*
X180060000Y-93600000D02*
X182600000Y-93600000D01*
X79676700Y-57200000D02*
X79676700Y-57487900D01*
X133354100Y-70054000D02*
X135894100Y-70054000D01*
X130700000Y-62740000D02*
X128160000Y-62740000D01*
X99809500Y-68902300D02*
X103142600Y-68902300D01*
X123194100Y-67514000D02*
X125734100Y-67514000D01*
X140860000Y-60200000D02*
X138320000Y-60200000D01*
X145940000Y-60200000D02*
X143400000Y-60200000D01*
X128274100Y-70054000D02*
X130814100Y-70054000D01*
%TO.N,/3v3*%
X182600000Y-85980000D02*
X181448300Y-85980000D01*
X127776700Y-71246500D02*
X143998300Y-71246500D01*
X181448300Y-85980000D02*
X181448300Y-85692100D01*
X125734100Y-70054000D02*
X126885800Y-70054000D01*
X126885800Y-70355600D02*
X127776700Y-71246500D01*
X180466200Y-84710000D02*
X152451000Y-84710000D01*
X202316900Y-85980000D02*
X182600000Y-85980000D01*
X143998300Y-71246500D02*
X144902400Y-70342400D01*
X126885800Y-70054000D02*
X126885800Y-70355600D01*
X181448300Y-85692100D02*
X180466200Y-84710000D01*
X144902400Y-70342400D02*
X144902400Y-70054000D01*
X146054100Y-70054000D02*
X144902400Y-70054000D01*
%TO.N,/Power_LED*%
X103414300Y-56034500D02*
X109124300Y-56034500D01*
X109124300Y-56034500D02*
X110467700Y-57377900D01*
X110467700Y-57377900D02*
X119156400Y-57377900D01*
X101385000Y-57200000D02*
X102536700Y-57200000D01*
X102536700Y-56912100D02*
X103414300Y-56034500D01*
X102536700Y-57200000D02*
X102536700Y-56912100D01*
%TO.N,/5v*%
X110616700Y-60200000D02*
X107616700Y-57200000D01*
X180060000Y-103760000D02*
X153862200Y-103760000D01*
X122582400Y-59040800D02*
X142637400Y-59040800D01*
X121691700Y-60200000D02*
X121691700Y-59931500D01*
X143514100Y-67514000D02*
X146054100Y-67514000D01*
X121691700Y-59931500D02*
X122582400Y-59040800D01*
X120540000Y-60200000D02*
X118000000Y-60200000D01*
X118000000Y-60200000D02*
X110616700Y-60200000D01*
X120540000Y-60200000D02*
X121691700Y-60200000D01*
X106465000Y-57200000D02*
X107616700Y-57200000D01*
%TO.N,/Start*%
X120654100Y-70054000D02*
X121805800Y-70054000D01*
X147754000Y-68784000D02*
X122807300Y-68784000D01*
X206229100Y-66859200D02*
X149678800Y-66859200D01*
X121805800Y-69785500D02*
X121805800Y-70054000D01*
X122807300Y-68784000D02*
X121805800Y-69785500D01*
X206848300Y-66240000D02*
X206229100Y-66859200D01*
X208000000Y-66240000D02*
X206848300Y-66240000D01*
X149678800Y-66859200D02*
X147754000Y-68784000D01*
%TO.N,/EEPROM SDA*%
X114185800Y-70341900D02*
X117701400Y-73857500D01*
X113034100Y-70054000D02*
X114185800Y-70054000D01*
X114185800Y-70054000D02*
X114185800Y-70341900D01*
X117701400Y-73857500D02*
X177877000Y-73857500D01*
%TO.N,/MCU SDA*%
X182600000Y-103760000D02*
X181448300Y-103760000D01*
X181448300Y-103760000D02*
X181448300Y-103491500D01*
X181448300Y-103491500D02*
X180446800Y-102490000D01*
X180446800Y-102490000D02*
X146887100Y-102490000D01*
%TO.N,/EEPROM SDL*%
X115187300Y-68784000D02*
X114185800Y-67782500D01*
X180060000Y-73280000D02*
X178908300Y-73280000D01*
X178884100Y-73255800D02*
X119682900Y-73255800D01*
X113034100Y-67514000D02*
X114185800Y-67514000D01*
X115992400Y-68784000D02*
X115187300Y-68784000D01*
X116844100Y-70417000D02*
X116844100Y-69635700D01*
X116844100Y-69635700D02*
X115992400Y-68784000D01*
X119682900Y-73255800D02*
X116844100Y-70417000D01*
X178908300Y-73280000D02*
X178884100Y-73255800D01*
X114185800Y-67782500D02*
X114185800Y-67514000D01*
%TO.N,/MCU SCL*%
X181448300Y-101220000D02*
X181448300Y-100932100D01*
X182600000Y-101220000D02*
X181448300Y-101220000D01*
X180484900Y-99968700D02*
X146175900Y-99968700D01*
X181448300Y-100932100D02*
X180484900Y-99968700D01*
%TO.N,/Clk*%
X109405300Y-65718700D02*
X133354100Y-65718700D01*
%TO.N,/Brightness_A*%
X106565800Y-70341900D02*
X113227600Y-77003700D01*
X113227600Y-77003700D02*
X206244600Y-77003700D01*
X105414100Y-70054000D02*
X106565800Y-70054000D01*
X106565800Y-70054000D02*
X106565800Y-70341900D01*
X206244600Y-77003700D02*
X206848300Y-76400000D01*
X208000000Y-76400000D02*
X206848300Y-76400000D01*
%TO.N,/Brightness_B*%
X142518600Y-64293300D02*
X203806300Y-64293300D01*
X139585800Y-67226100D02*
X142518600Y-64293300D01*
X205557900Y-62541700D02*
X210270800Y-62541700D01*
X203806300Y-64293300D02*
X205557900Y-62541700D01*
X138434100Y-67514000D02*
X139585800Y-67514000D01*
X139585800Y-67514000D02*
X139585800Y-67226100D01*
%TO.N,/Volume_A*%
X86145000Y-57200000D02*
X87296700Y-57200000D01*
X135894100Y-67514000D02*
X135894100Y-66362300D01*
X134004100Y-64472300D02*
X125688200Y-64472300D01*
X124350000Y-62298300D02*
X123592500Y-61540800D01*
X87296700Y-57468500D02*
X87296700Y-57200000D01*
X124350000Y-63134100D02*
X124350000Y-62298300D01*
X125688200Y-64472300D02*
X124350000Y-63134100D01*
X123592500Y-61540800D02*
X91369000Y-61540800D01*
X135894100Y-66362300D02*
X134004100Y-64472300D01*
X91369000Y-61540800D02*
X87296700Y-57468500D01*
%TD*%
M02*
